<?xml version="1.0" standalone="no"?>
<!DOCTYPE svg PUBLIC "-//W3C//DTD SVG 20010904//EN"
 "http://www.w3.org/TR/2001/REC-SVG-20010904/DTD/svg10.dtd">
<svg version="1.0" xmlns="http://www.w3.org/2000/svg"
 width="512.000000pt" height="512.000000pt" viewBox="0 0 512.000000 512.000000"
 preserveAspectRatio="xMidYMid meet">
<metadata>
Created by potrace 1.11, written by Peter Selinger 2001-2013
</metadata>
<g transform="translate(0.000000,512.000000) scale(0.100000,-0.100000)"
fill="#000000" stroke="none">
<path d="M2383 4555 c-4 -5 -3 -7 2 -3 4 4 15 3 25 -2 11 -6 17 -5 17 3 0 15
-36 17 -44 2z"/>
<path d="M2455 4560 c-2 -4 5 -7 18 -6 13 1 21 -4 19 -12 -1 -8 2 -11 9 -7 8
5 8 10 0 18 -14 14 -39 18 -46 7z"/>
<path d="M2333 4545 c0 -8 4 -12 9 -9 5 3 6 10 3 15 -9 13 -12 11 -12 -6z"/>
<path d="M2370 4529 c0 -5 5 -7 10 -4 6 3 10 8 10 11 0 2 -4 4 -10 4 -5 0 -10
-5 -10 -11z"/>
<path d="M2450 4529 c0 -5 5 -7 10 -4 6 3 10 8 10 11 0 2 -4 4 -10 4 -5 0 -10
-5 -10 -11z"/>
<path d="M2514 4526 c-6 -15 -50 -16 -73 -2 -10 6 -12 5 -7 -2 4 -7 3 -12 -3
-12 -5 0 -11 6 -14 13 -3 9 -7 9 -20 -2 -13 -10 -20 -11 -31 -2 -11 9 -16 9
-22 0 -5 -8 -3 -10 7 -4 8 5 11 4 6 -1 -12 -13 -60 -12 -69 0 -5 7 -8 7 -8 -1
0 -7 -4 -13 -10 -13 -5 0 -9 5 -7 11 1 6 -6 13 -16 14 -14 3 -16 0 -7 -10 8
-9 8 -15 0 -20 -5 -3 -10 -1 -10 4 0 6 -5 11 -11 11 -5 0 -7 -5 -4 -10 4 -6 3
-10 -2 -9 -4 1 -10 1 -13 -1 -3 -1 -16 -3 -30 -6 -20 -3 -22 -2 -10 7 12 9 12
10 -4 5 -10 -4 -26 -1 -35 6 -10 8 -9 4 3 -10 19 -22 19 -22 1 -16 -11 5 -16
4 -12 -3 4 -6 -5 -10 -21 -9 -15 1 -35 -5 -44 -13 -10 -8 -18 -11 -18 -8 0 3
-12 0 -27 -8 -15 -8 -30 -12 -35 -9 -5 3 -16 0 -25 -8 -14 -11 -15 -10 -8 12
7 23 7 23 -9 7 -10 -9 -22 -14 -28 -11 -7 4 -8 2 -4 -5 4 -6 13 -9 19 -5 7 3
3 -2 -7 -10 -23 -19 -36 -20 -36 -5 0 5 5 7 12 3 7 -4 8 -3 4 4 -10 16 -38 2
-32 -15 3 -8 1 -11 -4 -8 -6 3 -10 0 -10 -7 0 -10 -2 -10 -9 1 -5 8 -10 9 -12
3 -2 -6 -11 -12 -19 -14 -8 -2 -20 -8 -28 -15 -10 -10 -17 -9 -31 5 -10 9 -16
22 -13 27 3 6 1 6 -3 2 -14 -12 -14 -36 -1 -31 7 3 13 -2 13 -11 0 -8 -3 -13
-5 -10 -3 3 -11 0 -18 -6 -8 -7 -14 -6 -20 2 -5 8 -3 9 6 4 9 -5 11 -4 6 4 -9
14 -36 -3 -36 -23 0 -6 5 -4 10 4 5 8 10 10 10 4 0 -16 -10 -23 -25 -17 -8 2
-11 12 -8 21 4 14 3 14 -5 3 -6 -8 -8 -20 -5 -28 5 -12 -8 -18 -29 -14 -5 0
-8 -4 -8 -9 0 -6 -5 -10 -11 -10 -5 0 -7 5 -3 12 4 7 3 8 -5 4 -6 -4 -9 -11
-6 -16 3 -4 -2 -13 -10 -20 -8 -7 -15 -9 -15 -5 0 5 -9 0 -19 -9 -14 -13 -21
-14 -27 -5 -5 8 -3 10 7 4 8 -5 10 -4 6 0 -4 5 -14 10 -23 11 -12 2 -13 -1 -3
-12 9 -11 8 -18 -6 -34 -10 -11 -21 -17 -26 -14 -4 2 -13 -5 -19 -16 -6 -11
-16 -20 -23 -20 -8 0 -7 4 3 11 13 9 13 10 0 6 -8 -2 -16 -10 -16 -18 -1 -8
-2 -18 -3 -23 0 -5 -8 -3 -16 4 -18 15 -68 23 -60 10 3 -5 11 -7 18 -5 7 3 19
0 27 -5 13 -8 13 -12 -3 -27 -17 -17 -18 -17 -12 2 6 16 5 17 -4 5 -6 -8 -11
-23 -11 -32 0 -12 -8 -18 -22 -19 -13 0 -17 -3 -10 -6 6 -2 10 -9 6 -14 -9
-15 -22 -10 -27 9 -3 9 -5 3 -4 -13 1 -36 -9 -55 -29 -55 -9 0 -12 -5 -8 -12
5 -8 0 -9 -17 -5 -23 6 -23 5 -5 -8 11 -8 16 -15 10 -15 -5 0 -15 -14 -23 -31
-9 -21 -18 -28 -29 -24 -12 4 -13 3 -2 -10 11 -14 7 -19 -12 -16 -5 0 -8 -10
-8 -24 0 -14 -5 -25 -11 -25 -6 0 -9 6 -6 13 3 8 2 20 -3 27 -5 7 -7 -2 -7
-23 1 -20 5 -33 9 -31 4 3 5 -2 2 -10 -3 -9 -10 -13 -15 -10 -5 3 -9 -6 -9
-20 0 -28 -9 -33 -28 -14 -8 8 -12 8 -12 1 0 -6 7 -14 16 -17 12 -5 14 -10 5
-20 -6 -7 -8 -16 -4 -20 4 -4 0 -4 -10 0 -9 3 -14 11 -10 17 4 6 1 7 -6 3 -9
-6 -9 -12 2 -24 11 -13 12 -23 4 -42 -11 -27 -16 -44 -21 -75 -6 -36 -18 -55
-30 -48 -6 4 -4 -2 4 -12 9 -11 10 -16 3 -11 -7 4 -13 3 -13 -3 0 -5 6 -11 13
-14 6 -2 9 -8 5 -12 -4 -4 -14 -2 -22 4 -13 11 -15 9 -11 -9 2 -13 7 -25 11
-29 4 -3 4 3 0 14 -5 15 -4 17 5 8 15 -15 1 -36 -20 -29 -15 6 -15 5 0 -6 12
-10 16 -29 15 -70 -1 -31 -4 -60 -8 -63 -4 -4 -4 -13 -2 -20 9 -22 -18 -30
-33 -10 -7 11 -13 14 -13 8 0 -15 27 -36 39 -29 6 4 9 -17 8 -56 -2 -38 -7
-63 -15 -66 -6 -2 -12 -9 -12 -15 0 -8 4 -7 12 1 19 19 26 14 23 -13 -1 -14 2
-28 7 -31 5 -3 2 -17 -7 -31 -10 -14 -12 -22 -6 -19 6 4 12 1 12 -6 1 -7 3
-31 5 -53 11 -101 11 -141 2 -159 -7 -13 -6 -22 3 -30 9 -8 11 -7 6 6 -3 10
-2 20 2 23 5 2 11 -6 13 -20 3 -13 2 -22 -2 -20 -5 3 -11 -2 -14 -11 -3 -9
-11 -12 -18 -8 -9 4 -8 2 1 -7 10 -11 15 -11 18 -1 8 22 20 13 19 -15 -1 -16
2 -36 7 -46 5 -10 4 -23 -1 -30 -14 -19 -23 -49 -12 -42 6 3 10 13 10 22 0 27
15 4 16 -25 1 -15 3 -27 4 -27 1 0 4 -13 6 -30 2 -16 5 -41 7 -55 2 -14 -5
-39 -15 -57 -14 -23 -16 -33 -7 -39 7 -4 9 -3 6 2 -3 6 -2 16 2 23 5 8 8 -6 7
-33 0 -29 -5 -45 -12 -42 -6 2 -17 0 -25 -6 -11 -8 -11 -9 2 -5 26 8 42 -9 45
-50 3 -30 1 -34 -7 -20 -5 9 -7 22 -3 29 5 7 3 8 -6 3 -10 -6 -12 -4 -6 11 5
14 4 16 -4 8 -8 -8 -6 -23 9 -55 20 -45 26 -103 9 -93 -5 3 -6 15 -2 27 3 12
4 20 2 17 -9 -9 -31 -55 -23 -48 4 4 14 1 21 -7 16 -16 19 -29 4 -20 -6 3 -10
2 -10 -3 0 -6 7 -13 16 -16 8 -3 12 -11 9 -16 -5 -8 -11 -8 -20 0 -10 8 -15 8
-21 -1 -4 -8 -3 -9 4 -5 7 4 12 3 12 -3 0 -5 -6 -12 -12 -15 -7 -3 -3 -3 10 0
12 3 22 2 21 -3 -1 -4 -1 -10 1 -13 8 -22 8 -50 -1 -50 -5 0 -7 5 -4 10 3 6 2
10 -4 10 -5 0 -9 -9 -8 -20 1 -14 6 -19 17 -15 12 5 12 4 3 -6 -8 -8 -9 -18
-3 -29 11 -21 8 -43 -10 -66 -13 -16 -13 -17 0 -12 13 5 16 -2 15 -32 0 -21
-3 -36 -7 -34 -4 2 -9 0 -13 -6 -3 -5 -1 -10 4 -10 15 0 14 -43 -1 -58 -9 -9
-8 -12 5 -12 15 0 16 -4 7 -20 -8 -14 -8 -20 0 -20 6 0 8 -5 5 -10 -4 -6 -11
-7 -17 -4 -6 4 -6 -1 1 -14 6 -12 16 -24 21 -27 15 -9 12 -25 -5 -25 -8 0 -15
-4 -15 -9 0 -5 7 -8 17 -7 25 2 38 -55 16 -72 -17 -12 -28 -47 -12 -36 5 3 7
9 4 14 -3 4 2 11 11 14 22 8 26 8 20 -3 -4 -5 0 -12 6 -14 8 -4 7 -6 -3 -6 -9
-1 -20 -8 -23 -17 -5 -13 -3 -14 7 -6 15 13 37 2 41 -20 1 -9 8 -23 15 -32 9
-11 10 -16 2 -16 -6 0 -11 -5 -11 -12 0 -6 3 -9 6 -5 12 12 35 -23 30 -45 -3
-13 -3 -17 0 -10 3 6 11 9 16 6 7 -5 8 -2 4 7 -4 8 2 3 13 -10 12 -13 24 -21
28 -18 3 4 12 2 20 -4 11 -10 11 -15 1 -27 -11 -13 -10 -14 10 -3 12 6 22 8
22 3 0 -6 9 -12 20 -15 14 -4 18 -11 14 -32 -4 -22 -3 -24 10 -13 7 7 11 18 8
23 -3 6 8 -1 24 -15 16 -14 31 -26 34 -28 3 -2 -4 -10 -14 -18 -11 -8 -15 -14
-9 -14 6 0 16 7 24 16 11 14 13 14 21 -1 5 -8 15 -12 21 -8 7 3 3 -4 -8 -16
l-20 -23 27 13 c22 9 31 9 43 -1 12 -10 13 -16 4 -26 -8 -10 -8 -14 -1 -14 6
0 14 5 18 12 5 8 10 7 18 -4 6 -8 19 -17 29 -21 11 -4 15 -12 11 -19 -5 -8 -2
-9 9 -5 11 4 23 -3 37 -20 11 -14 23 -23 27 -20 3 4 12 2 20 -4 11 -10 11 -15
1 -27 -11 -13 -10 -14 6 -5 14 8 26 6 47 -6 16 -9 29 -20 29 -24 0 -5 -10 -1
-22 7 -26 19 -38 20 -38 5 0 -5 4 -8 9 -4 5 3 17 -2 25 -11 13 -12 20 -13 30
-5 10 9 15 8 20 -4 3 -8 9 -14 13 -13 4 1 18 -3 30 -10 15 -8 20 -19 17 -35
-2 -15 1 -24 10 -24 8 0 12 8 9 21 -4 20 -4 20 11 3 8 -11 12 -26 9 -35 -4
-15 -3 -15 6 -2 10 13 15 8 12 -13 0 -4 4 -7 9 -7 15 0 12 11 -7 32 -9 10 -11
18 -6 18 6 0 14 -7 17 -16 3 -8 10 -13 14 -10 11 7 54 -23 48 -33 -3 -4 -1
-13 3 -20 6 -10 10 -9 14 4 5 10 3 14 -5 9 -7 -4 -8 -3 -4 5 12 18 27 2 21
-22 -6 -22 -6 -22 11 -2 16 20 16 20 11 -2 -3 -15 -1 -20 9 -16 8 3 11 9 8 14
-3 5 2 6 10 3 8 -3 13 -11 10 -18 -6 -15 43 -40 51 -26 8 13 58 -16 61 -36 2
-9 8 -22 15 -28 9 -8 9 -6 0 11 -7 14 -8 24 -1 28 5 3 10 -2 10 -12 0 -15 2
-16 10 -3 7 11 10 11 10 2 0 -7 4 -11 9 -7 5 3 12 1 16 -5 4 -6 11 -7 17 -4 7
5 9 2 6 -8 -4 -8 0 -15 8 -15 7 0 11 4 8 9 -3 4 0 8 5 8 6 0 11 -4 11 -10 0
-5 3 -9 8 -9 19 3 33 -3 52 -24 20 -20 21 -20 15 -2 -5 15 -4 16 3 6 6 -8 15
-10 23 -6 8 5 5 -1 -5 -14 -16 -17 -17 -24 -7 -34 10 -9 11 -9 6 5 -4 11 1 20
14 28 21 11 28 3 13 -15 -4 -6 -3 -7 2 -3 5 3 16 4 25 1 14 -4 14 -3 1 6 -20
14 -8 14 27 -1 15 -6 34 -10 41 -9 6 1 12 -3 12 -8 0 -6 8 -8 18 -4 14 5 15 3
5 -8 -18 -19 -16 -34 2 -16 11 12 50 17 50 7 0 -2 23 -8 48 -13 10 -2 27 -17
38 -33 10 -16 19 -24 19 -17 0 6 -4 15 -10 18 -5 3 -10 12 -10 18 0 9 2 9 8 0
9 -14 1 -13 190 -15 113 -1 142 -5 138 -15 -3 -7 -1 -13 4 -13 6 0 10 7 10 16
0 8 4 13 10 9 5 -3 7 -13 4 -23 -5 -14 -4 -14 4 -2 6 8 9 17 6 22 -11 17 52 1
64 -17 12 -19 13 -19 6 4 -4 15 -2 21 4 17 6 -3 13 -2 17 4 7 12 25 4 25 -12
0 -5 -7 -7 -16 -4 -13 5 -14 3 -7 -6 6 -7 9 -21 7 -31 -1 -11 1 -16 4 -12 4 4
7 10 7 13 2 22 18 52 28 53 7 0 25 2 40 3 26 2 45 -14 45 -37 0 -5 2 -10 4
-12 2 -2 4 9 3 24 0 16 -3 27 -7 24 -5 -2 -8 1 -8 6 0 6 8 11 18 11 10 0 27 6
37 14 11 8 26 11 34 8 10 -4 12 -1 7 9 -4 8 2 3 14 -11 19 -22 20 -22 11 -3
-15 29 -14 33 4 27 9 -4 15 0 15 9 0 8 8 21 17 28 9 8 14 9 10 3 -4 -7 -1 -14
7 -17 10 -4 12 1 9 16 -4 18 -3 20 7 7 10 -13 11 -11 7 7 -5 24 24 58 38 46 4
-5 5 0 2 9 -3 10 -1 20 5 24 6 4 8 3 5 -3 -4 -6 1 -17 10 -24 14 -12 16 -12 8
1 -16 27 -13 52 6 47 12 -3 16 0 12 9 -3 8 -9 11 -14 9 -4 -3 -2 9 5 27 8 18
19 34 25 36 6 2 11 8 11 13 0 6 -6 7 -12 3 -7 -4 -5 2 5 14 11 11 17 25 14 29
-3 5 -1 15 5 23 8 12 9 12 4 -3 -3 -11 -2 -16 4 -12 14 9 12 32 -2 38 -10 4
-10 6 0 6 7 1 10 6 6 12 -4 8 1 9 17 4 22 -7 23 -6 6 7 -14 11 -16 19 -9 38 5
14 8 33 6 43 -1 9 2 14 8 11 6 -4 8 1 4 14 -4 11 -2 23 3 26 5 4 8 15 6 26 -4
23 11 35 28 23 7 -4 4 0 -6 10 -14 12 -15 17 -5 17 8 0 19 -5 25 -11 7 -7 12
-6 16 5 4 10 1 13 -7 10 -20 -8 -35 18 -29 49 4 21 8 25 14 15 6 -8 8 0 6 24
-2 20 -1 37 2 36 19 -2 24 3 11 12 -8 5 -11 12 -7 16 3 4 15 1 24 -7 16 -13
17 -12 5 2 -7 9 -9 25 -6 35 6 17 5 17 -10 -1 -17 -20 -17 -20 -6 2 6 13 8 23
4 23 -3 0 -1 6 5 13 6 8 8 17 4 20 -3 4 -1 7 6 7 8 0 11 -7 6 -17 -5 -14 -4
-15 6 -6 8 8 9 16 2 25 -20 26 -11 53 18 50 3 -1 6 5 6 13 0 8 -7 11 -16 7
-13 -5 -14 -3 -3 10 7 8 10 22 7 30 -4 9 4 20 20 28 14 7 25 18 25 24 0 6 -5
5 -12 -2 -7 -7 -15 -12 -19 -12 -9 0 -5 27 6 37 4 4 5 2 0 -6 -6 -10 -4 -12 4
-7 9 6 9 11 0 22 -9 11 -8 14 5 14 10 0 14 5 11 10 -4 6 -11 7 -17 4 -6 -4 -8
-2 -5 4 4 5 17 8 30 5 21 -4 21 -3 -3 11 -24 14 -24 17 0 20 12 1 14 15 4 24
-4 4 -4 1 1 -7 6 -10 4 -12 -4 -7 -9 6 -9 11 0 23 11 12 14 11 25 -9 l12 -23
-1 27 c-1 14 -5 24 -9 22 -4 -2 -10 6 -14 18 -4 15 -1 25 12 35 10 7 14 13 8
13 -5 0 -16 4 -24 10 -12 7 -12 12 4 28 11 13 13 22 7 26 -6 4 -8 13 -4 21 3
8 0 15 -7 15 -6 0 -8 -6 -4 -12 4 -8 3 -10 -2 -5 -5 5 -10 23 -11 40 -1 18 -4
43 -6 57 -3 14 1 31 7 39 8 11 8 13 -1 7 -8 -4 -13 -2 -14 6 -1 7 -2 25 -3 40
-2 16 2 24 8 22 7 -3 12 6 13 18 0 13 -1 17 -4 11 -9 -23 -22 -13 -17 13 3 16
1 23 -6 19 -5 -3 -10 -1 -10 4 0 6 4 11 9 11 5 0 12 7 15 16 6 15 4 15 -10 3
-15 -12 -16 -11 -9 10 4 13 3 21 -1 18 -5 -3 -10 12 -10 34 -1 21 3 36 8 33 5
-3 7 -13 4 -23 -5 -12 -2 -11 9 3 8 11 15 25 15 30 0 7 -3 7 -8 -1 -13 -21
-37 10 -38 49 -1 21 3 35 8 32 4 -3 8 -1 8 5 0 5 -5 11 -12 13 -18 6 -16 90 2
106 13 11 12 12 -6 7 -19 -5 -20 -1 -19 50 1 30 -1 55 -5 55 -4 0 -6 16 -5 35
1 19 -3 35 -8 35 -5 0 -3 7 4 16 7 9 14 26 15 37 2 12 0 16 -2 10 -9 -20 -23
-15 -21 6 0 11 4 18 7 16 3 -1 11 4 19 12 12 13 11 14 -5 9 -17 -5 -20 -1 -21
32 0 20 -3 51 -7 69 -7 35 7 53 22 28 8 -15 10 -15 22 0 11 13 10 15 -3 10 -8
-4 -18 -1 -22 4 -3 6 -11 9 -16 5 -6 -3 -8 5 -5 20 2 14 -1 27 -7 30 -8 3 -7
5 2 5 11 1 11 4 1 16 -8 9 -9 15 -2 15 6 0 8 10 5 23 -12 51 -10 127 4 127 7
0 13 4 13 10 0 5 -6 7 -12 5 -9 -4 -13 6 -14 30 -1 20 3 35 10 35 6 0 5 4 -3
9 -20 13 -23 149 -3 178 9 15 10 23 3 23 -6 0 -11 -8 -11 -17 0 -15 -2 -16
-10 -3 -12 19 6 40 31 35 11 -2 17 0 14 5 -3 5 -17 6 -32 4 -21 -4 -24 -2 -15
8 8 10 8 18 0 28 -8 12 -9 12 -4 -3 3 -10 2 -15 -3 -12 -6 3 -10 14 -10 25 -1
11 -1 29 -2 40 0 11 -4 18 -10 15 -5 -4 -9 1 -9 10 0 9 -5 26 -12 38 -14 26
-15 57 -4 77 7 12 6 13 -5 3 -21 -20 -31 -15 -18 10 11 20 11 21 -5 8 -14 -12
-16 -12 -11 1 4 9 -1 18 -10 22 -9 3 -13 10 -10 16 3 5 1 10 -6 10 -10 0 -10
3 -2 11 13 13 6 39 -9 39 -6 0 -4 -8 3 -17 13 -16 12 -17 -3 -4 -20 15 -25 47
-6 35 7 -4 8 -3 4 4 -4 6 -14 8 -24 5 -15 -6 -15 -5 -4 10 8 9 12 22 9 29 -4
8 -6 7 -6 -4 -1 -12 -6 -15 -17 -11 -12 5 -13 7 -2 14 11 7 10 10 -1 21 -12
11 -13 10 -6 -2 6 -10 1 -8 -13 4 -25 22 -28 28 -9 20 8 -3 14 2 14 10 0 8 -6
12 -14 9 -22 -9 -44 16 -33 37 14 26 12 37 -2 18 -12 -14 -16 -13 -43 13 -22
21 -26 29 -14 29 19 0 33 26 18 35 -5 4 -8 1 -7 -6 7 -30 -31 -12 -84 40 -53
52 -78 75 -168 149 -19 16 -49 36 -66 45 -17 9 -36 23 -43 31 -7 9 -18 13 -24
9 -6 -4 -8 0 -5 9 4 8 0 15 -8 15 -7 0 -10 -5 -7 -11 4 -6 -3 -3 -14 7 -11 9
-24 14 -28 10 -5 -5 -4 -1 3 9 9 11 10 18 2 23 -6 3 -7 11 -4 17 4 7 2 8 -5 4
-9 -6 -9 -11 -1 -21 20 -24 -13 -23 -56 1 -23 13 -44 20 -48 17 -3 -4 -6 -2
-6 3 0 6 5 15 10 20 7 7 4 16 -10 29 -18 16 -20 17 -14 2 3 -9 11 -17 18 -17
6 0 2 -7 -8 -15 -17 -13 -23 -13 -40 -1 -12 7 -29 12 -38 10 -10 -1 -18 2 -18
7 0 6 -4 7 -10 4 -5 -3 -10 -2 -10 3 0 5 -12 9 -27 9 -16 0 -41 4 -58 8 -16 4
-50 8 -75 9 -36 1 -45 5 -44 19 2 20 -5 22 -12 3z m1327 -2669 c-1 -12 -15 -9
-19 4 -3 6 1 10 8 8 6 -3 11 -8 11 -12z m-2716 -217 c3 -5 1 -10 -4 -10 -6 0
-11 5 -11 10 0 6 2 10 4 10 3 0 8 -4 11 -10z m1005 -885 c11 -13 10 -14 -4 -9
-9 3 -16 10 -16 15 0 13 6 11 20 -6z"/>
<path d="M2307 4519 c7 -7 15 -10 18 -7 3 3 -2 9 -12 12 -14 6 -15 5 -6 -5z"/>
<path d="M2536 4521 c-2 -3 11 -6 29 -6 18 0 31 3 29 6 -2 4 -15 7 -29 7 -14
0 -27 -3 -29 -7z"/>
<path d="M2610 4519 c0 -5 5 -7 10 -4 6 3 10 8 10 11 0 2 -4 4 -10 4 -5 0 -10
-5 -10 -11z"/>
<path d="M2636 4513 c-6 -14 -5 -15 5 -6 7 7 10 15 7 18 -3 3 -9 -2 -12 -12z"/>
<path d="M2706 4518 c3 -5 10 -6 15 -3 13 9 11 12 -6 12 -8 0 -12 -4 -9 -9z"/>
<path d="M2741 4516 c-9 -11 -9 -16 1 -22 7 -4 10 -4 6 1 -4 4 -3 14 3 22 6 7
9 13 6 13 -2 0 -10 -6 -16 -14z"/>
<path d="M2186 4503 c-6 -14 -5 -15 5 -6 7 7 10 15 7 18 -3 3 -9 -2 -12 -12z"/>
<path d="M2690 4500 c0 -5 5 -10 11 -10 5 0 7 5 4 10 -3 6 -8 10 -11 10 -2 0
-4 -4 -4 -10z"/>
<path d="M2765 4491 c-3 -5 -2 -12 3 -15 5 -3 9 1 9 9 0 17 -3 19 -12 6z"/>
<path d="M2090 4479 c0 -5 5 -7 10 -4 6 3 10 8 10 11 0 2 -4 4 -10 4 -5 0 -10
-5 -10 -11z"/>
<path d="M2796 4477 c3 -10 9 -15 12 -12 3 3 0 11 -7 18 -10 9 -11 8 -5 -6z"/>
<path d="M2015 4460 c-4 -6 -14 -9 -22 -8 -9 2 -17 -3 -19 -10 -1 -7 0 -8 2
-3 3 6 11 8 19 5 7 -3 16 0 20 5 3 6 11 8 17 5 7 -4 8 -2 4 4 -9 15 -13 15
-21 2z"/>
<path d="M2870 4446 c0 -2 7 -7 16 -10 8 -3 12 -2 9 4 -6 10 -25 14 -25 6z"/>
<path d="M2911 4427 c2 -1 12 -9 22 -16 15 -12 17 -12 11 3 -3 9 -13 16 -22
16 -8 0 -13 -1 -11 -3z"/>
<path d="M2995 4409 c-4 -6 -5 -12 -2 -15 2 -3 7 2 10 11 7 17 1 20 -8 4z"/>
<path d="M1750 4400 c0 -5 5 -10 11 -10 5 0 7 5 4 10 -3 6 -8 10 -11 10 -2 0
-4 -4 -4 -10z"/>
<path d="M1804 4395 c-4 -8 -11 -12 -17 -8 -6 3 -7 1 -3 -5 10 -16 14 -15 26
8 6 11 8 20 5 20 -3 0 -8 -7 -11 -15z"/>
<path d="M3015 4400 c-3 -5 -1 -10 4 -10 6 0 11 5 11 10 0 6 -2 10 -4 10 -3 0
-8 -4 -11 -10z"/>
<path d="M3052 4371 c-11 -6 -7 -13 14 -30 14 -11 29 -21 33 -22 3 0 16 -2 29
-5 12 -2 22 0 22 5 0 5 -8 8 -17 6 -28 -4 -75 24 -69 41 6 16 6 17 -12 5z"/>
<path d="M3166 4322 c-3 -5 1 -9 9 -9 8 0 12 4 9 9 -3 4 -7 8 -9 8 -2 0 -6 -4
-9 -8z"/>
<path d="M1595 4310 c-3 -5 -1 -10 4 -10 6 0 11 5 11 10 0 6 -2 10 -4 10 -3 0
-8 -4 -11 -10z"/>
<path d="M1550 4285 c0 -5 5 -17 10 -25 5 -8 10 -10 10 -5 0 6 -5 17 -10 25
-5 8 -10 11 -10 5z"/>
<path d="M3170 4275 c0 -8 2 -15 4 -15 2 0 13 -3 23 -6 17 -5 17 -5 0 6 -9 6
-15 15 -12 21 4 5 1 9 -4 9 -6 0 -11 -7 -11 -15z"/>
<path d="M1530 4260 c0 -5 5 -10 11 -10 5 0 7 5 4 10 -3 6 -8 10 -11 10 -2 0
-4 -4 -4 -10z"/>
<path d="M3221 4249 c-1 -8 14 -28 31 -45 27 -24 29 -25 13 -4 -11 14 -23 27
-26 30 -3 3 -9 12 -12 20 -5 13 -6 13 -6 -1z"/>
<path d="M1484 4222 c3 -5 0 -12 -6 -15 -7 -2 -10 -7 -7 -11 3 -4 12 0 18 8 9
11 9 16 0 22 -7 4 -9 3 -5 -4z"/>
<path d="M1439 4193 c-13 -16 -12 -17 4 -4 9 7 17 15 17 17 0 8 -8 3 -21 -13z"/>
<path d="M3291 4194 c0 -11 3 -14 6 -6 3 7 2 16 -1 19 -3 4 -6 -2 -5 -13z"/>
<path d="M3317 4176 c-17 -13 -15 -17 29 -63 26 -26 40 -36 31 -22 -10 14 -14
29 -10 34 5 4 2 5 -4 1 -7 -4 -13 -3 -13 3 0 5 -9 13 -21 16 -19 6 -20 8 -3
26 20 22 16 24 -9 5z"/>
<path d="M1315 4109 c-4 -6 -5 -12 -2 -15 2 -3 7 2 10 11 7 17 1 20 -8 4z"/>
<path d="M3439 4053 c-1 -5 -1 -12 0 -17 1 -5 -5 -6 -14 -3 -21 9 -19 0 3 -12
15 -8 18 -6 18 15 0 22 -5 33 -7 17z"/>
<path d="M1260 4009 c0 -5 -4 -8 -9 -5 -5 3 -12 -1 -15 -9 -4 -12 -2 -13 13
-6 10 6 21 7 25 3 4 -3 4 1 0 11 -7 19 -14 22 -14 6z"/>
<path d="M3465 3981 c-6 -11 13 -26 22 -17 4 3 1 6 -6 6 -7 0 -9 5 -6 10 3 6
4 10 1 10 -3 0 -7 -4 -11 -9z"/>
<path d="M3495 3980 c3 -5 8 -10 11 -10 2 0 4 5 4 10 0 6 -5 10 -11 10 -5 0
-7 -4 -4 -10z"/>
<path d="M1199 3933 c-10 -11 -10 -14 -1 -9 6 4 12 3 12 -3 0 -5 -5 -12 -10
-14 -6 -3 -5 -4 2 -3 7 1 14 12 14 24 2 26 0 27 -17 5z"/>
<path d="M1160 3895 c-7 -8 -17 -12 -24 -8 -6 3 -7 2 -3 -2 4 -5 15 -10 23
-11 9 -1 13 0 10 3 -3 4 -1 12 5 20 6 7 9 13 6 13 -2 0 -10 -7 -17 -15z"/>
<path d="M3573 3875 c0 -8 4 -12 9 -9 5 3 6 10 3 15 -9 13 -12 11 -12 -6z"/>
<path d="M1110 3800 c0 -5 5 -10 10 -10 6 0 10 5 10 10 0 6 -4 10 -10 10 -5 0
-10 -4 -10 -10z"/>
<path d="M1070 3786 c0 -2 7 -7 16 -10 8 -3 12 -2 9 4 -6 10 -25 14 -25 6z"/>
<path d="M3593 3775 c0 -8 4 -12 9 -9 4 3 8 9 8 15 0 5 -4 9 -8 9 -5 0 -9 -7
-9 -15z"/>
<path d="M3626 3762 c-3 -5 1 -9 9 -9 8 0 12 4 9 9 -3 4 -7 8 -9 8 -2 0 -6 -4
-9 -8z"/>
<path d="M1056 3747 c3 -10 9 -15 12 -12 3 3 0 11 -7 18 -10 9 -11 8 -5 -6z"/>
<path d="M3665 3720 c-3 -6 1 -7 9 -4 18 7 21 14 7 14 -6 0 -13 -4 -16 -10z"/>
<path d="M3650 3696 c0 -2 8 -10 18 -17 15 -13 16 -12 3 4 -13 16 -21 21 -21
13z"/>
<path d="M1062 3674 c10 -10 20 -16 22 -13 3 3 -5 11 -17 18 -21 13 -21 12 -5
-5z"/>
<path d="M3646 3662 c-2 -4 2 -16 10 -27 8 -10 14 -14 14 -8 0 7 -5 15 -10 18
-6 4 -8 11 -5 16 4 5 4 9 1 9 -3 0 -7 -3 -10 -8z"/>
<path d="M1055 3632 c1 -15 -3 -31 -9 -35 -7 -5 -5 -7 4 -4 8 2 15 12 15 23
-1 10 3 22 8 25 5 3 2 9 -6 12 -10 4 -13 -2 -12 -21z"/>
<path d="M1010 3620 c0 -5 5 -10 11 -10 5 0 7 5 4 10 -3 6 -8 10 -11 10 -2 0
-4 -4 -4 -10z"/>
<path d="M3693 3601 c0 -11 5 -18 9 -15 4 3 5 11 1 19 -7 21 -12 19 -10 -4z"/>
<path d="M1045 3560 c3 -5 8 -10 11 -10 2 0 4 5 4 10 0 6 -5 10 -11 10 -5 0
-7 -4 -4 -10z"/>
<path d="M3688 3552 c4 -10 7 -12 10 -4 2 7 9 9 15 5 7 -3 8 -2 4 2 -14 16
-36 14 -29 -3z"/>
<path d="M3720 3540 c-9 -6 -10 -10 -3 -10 6 0 15 5 18 10 8 12 4 12 -15 0z"/>
<path d="M1028 3533 c7 -3 16 -2 19 1 4 3 -2 6 -13 5 -11 0 -14 -3 -6 -6z"/>
<path d="M3730 3409 c0 -5 -4 -8 -8 -5 -4 2 -8 -3 -8 -13 0 -27 21 -21 22 6 1
13 0 23 -2 23 -2 0 -4 -5 -4 -11z"/>
<path d="M974 3377 c-4 -6 -4 -9 1 -5 4 4 14 3 22 -4 7 -6 15 -9 18 -7 2 3 -4
10 -15 17 -15 9 -21 9 -26 -1z"/>
<path d="M994 3326 c0 -14 4 -22 10 -19 6 4 7 -1 2 -13 -6 -15 -5 -17 5 -6 10
9 10 15 2 23 -6 6 -9 18 -6 25 3 8 1 14 -4 14 -5 0 -9 -11 -9 -24z"/>
<path d="M3735 3340 c-3 -5 -1 -10 4 -10 6 0 11 5 11 10 0 6 -2 10 -4 10 -3 0
-8 -4 -11 -10z"/>
<path d="M3710 3320 c0 -5 5 -10 11 -10 5 0 7 5 4 10 -3 6 -8 10 -11 10 -2 0
-4 -4 -4 -10z"/>
<path d="M3717 3284 c2 -7 12 -15 20 -18 12 -5 13 -4 5 7 -7 8 -10 16 -7 19 3
2 -1 5 -9 5 -8 0 -12 -6 -9 -13z"/>
<path d="M3732 3241 c-11 -7 -11 -9 0 -14 9 -3 15 1 15 9 0 8 -1 14 -1 14 -1
0 -7 -4 -14 -9z"/>
<path d="M995 3195 c0 -32 10 -40 13 -10 1 13 -2 26 -6 29 -4 2 -8 -6 -7 -19z"/>
<path d="M961 3196 c-9 -11 -9 -16 1 -22 7 -4 10 -4 6 1 -4 4 -3 14 3 22 6 7
9 13 6 13 -2 0 -10 -6 -16 -14z"/>
<path d="M3746 3198 c3 -5 10 -6 15 -3 13 9 11 12 -6 12 -8 0 -12 -4 -9 -9z"/>
<path d="M990 3140 c0 -5 5 -10 11 -10 5 0 7 5 4 10 -3 6 -8 10 -11 10 -2 0
-4 -4 -4 -10z"/>
<path d="M3727 3138 c4 -7 8 -16 8 -20 0 -3 3 -9 7 -13 3 -4 5 1 3 12 -2 10
-4 21 -4 26 -1 4 -6 7 -12 7 -6 0 -7 -5 -2 -12z"/>
<path d="M3726 3079 c4 -13 7 -34 8 -47 2 -13 11 -31 21 -40 18 -16 18 -16 5
1 -7 10 -15 28 -16 40 -3 34 -9 56 -17 63 -3 4 -4 -4 -1 -17z"/>
<path d="M3750 3079 c0 -5 5 -7 10 -4 6 3 10 8 10 11 0 2 -4 4 -10 4 -5 0 -10
-5 -10 -11z"/>
<path d="M1000 3046 c0 -8 4 -17 9 -20 5 -4 7 3 4 14 -6 23 -13 26 -13 6z"/>
<path d="M976 2979 c2 -4 14 -5 27 -2 18 5 20 3 10 -8 -7 -7 -13 -17 -13 -23
0 -5 6 -1 14 9 18 25 12 35 -19 33 -13 -1 -22 -5 -19 -9z"/>
<path d="M3734 2976 c1 -8 5 -18 8 -22 4 -3 5 1 4 10 -1 8 -5 18 -8 22 -4 3
-5 -1 -4 -10z"/>
<path d="M1016 2895 c-4 -11 -12 -15 -24 -10 -13 5 -14 4 -5 -6 10 -10 15 -9
28 1 9 8 15 8 15 2 0 -6 -5 -14 -10 -17 -13 -8 -3 -25 13 -24 8 0 8 2 -1 6
-10 4 -10 8 -2 18 8 9 8 20 2 31 -8 15 -10 15 -16 -1z"/>
<path d="M3737 2883 c7 -2 9 -12 5 -21 -5 -16 -5 -16 11 0 22 21 21 24 -5 25
-13 0 -18 -1 -11 -4z"/>
<path d="M3750 2840 c-9 -6 -10 -10 -3 -10 6 0 15 5 18 10 8 12 4 12 -15 0z"/>
<path d="M1020 2820 c0 -5 5 -10 11 -10 5 0 7 5 4 10 -3 6 -8 10 -11 10 -2 0
-4 -4 -4 -10z"/>
<path d="M3770 2820 c0 -5 5 -10 11 -10 5 0 7 5 4 10 -3 6 -8 10 -11 10 -2 0
-4 -4 -4 -10z"/>
<path d="M3780 2786 c0 -2 8 -10 18 -17 15 -13 16 -12 3 4 -13 16 -21 21 -21
13z"/>
<path d="M3766 2757 c3 -10 9 -15 12 -12 3 3 0 11 -7 18 -10 9 -11 8 -5 -6z"/>
<path d="M1046 2683 c-6 -14 -5 -15 5 -6 7 7 10 15 7 18 -3 3 -9 -2 -12 -12z"/>
<path d="M3766 2691 c-19 -7 -19 -8 0 -13 13 -3 21 0 21 8 0 8 -1 14 -1 13 -1
0 -10 -4 -20 -8z"/>
<path d="M1054 2652 c3 -5 0 -13 -6 -15 -9 -4 -10 -6 -1 -6 17 -1 25 16 12 25
-7 4 -9 3 -5 -4z"/>
<path d="M3757 2644 c-3 -5 1 -15 9 -22 16 -14 18 -5 5 17 -5 7 -11 9 -14 5z"/>
<path d="M3760 2596 c0 -2 7 -7 16 -10 8 -3 12 -2 9 4 -6 10 -25 14 -25 6z"/>
<path d="M1063 2573 c-15 -5 -17 -23 -4 -23 5 0 11 7 15 15 3 8 4 15 3 14 -1
0 -8 -3 -14 -6z"/>
<path d="M1075 2539 c-4 -6 -5 -12 -2 -15 2 -3 7 2 10 11 7 17 1 20 -8 4z"/>
<path d="M3766 2533 c-6 -14 -5 -15 5 -6 7 7 10 15 7 18 -3 3 -9 -2 -12 -12z"/>
<path d="M3815 2509 c-4 -6 -5 -12 -2 -15 2 -3 7 2 10 11 7 17 1 20 -8 4z"/>
<path d="M1070 2500 c0 -5 5 -10 11 -10 5 0 7 5 4 10 -3 6 -8 10 -11 10 -2 0
-4 -4 -4 -10z"/>
<path d="M1057 2479 c7 -7 15 -10 18 -7 3 3 -2 9 -12 12 -14 6 -15 5 -6 -5z"/>
<path d="M3790 2480 c0 -5 5 -10 11 -10 5 0 7 5 4 10 -3 6 -8 10 -11 10 -2 0
-4 -4 -4 -10z"/>
<path d="M1084 2452 c3 -6 -2 -13 -11 -15 -16 -4 -16 -5 -1 -6 21 -1 32 15 17
25 -7 4 -9 3 -5 -4z"/>
<path d="M3794 2402 c4 -3 14 -7 22 -8 9 -1 13 0 10 4 -4 3 -14 7 -22 8 -9 1
-13 0 -10 -4z"/>
<path d="M3788 2353 c7 -3 16 -2 19 1 4 3 -2 6 -13 5 -11 0 -14 -3 -6 -6z"/>
<path d="M1056 2341 c-4 -5 3 -7 14 -4 23 6 26 13 6 13 -8 0 -17 -4 -20 -9z"/>
<path d="M3785 2320 c3 -5 11 -10 16 -10 6 0 7 5 4 10 -3 6 -11 10 -16 10 -6
0 -7 -4 -4 -10z"/>
<path d="M3804 2242 c-9 -5 -8 -10 1 -19 11 -10 13 -9 12 7 -1 11 -1 20 -2 20
0 0 -5 -4 -11 -8z"/>
<path d="M1072 2215 c4 -4 3 -16 -3 -26 -5 -11 -7 -19 -5 -19 3 0 10 9 16 19
7 15 7 22 -2 27 -7 4 -10 4 -6 -1z"/>
<path d="M3855 2129 c-4 -6 -5 -12 -2 -15 2 -3 7 2 10 11 7 17 1 20 -8 4z"/>
<path d="M1056 2118 c3 -5 10 -6 15 -3 13 9 11 12 -6 12 -8 0 -12 -4 -9 -9z"/>
<path d="M1049 2083 c-13 -16 -12 -17 4 -4 16 13 21 21 13 21 -2 0 -10 -8 -17
-17z"/>
<path d="M3833 2082 c-9 -5 -6 -12 10 -21 19 -13 21 -12 10 1 -7 8 -10 18 -6
21 9 9 1 8 -14 -1z"/>
<path d="M3817 2049 c7 -7 15 -10 18 -7 3 3 -2 9 -12 12 -14 6 -15 5 -6 -5z"/>
<path d="M3836 2008 c-20 -28 -21 -43 -2 -26 8 7 12 15 10 17 -2 2 1 10 7 18
6 7 9 13 6 13 -3 0 -13 -10 -21 -22z"/>
<path d="M1073 1952 c0 -12 5 -22 9 -22 11 0 10 12 -2 30 -7 12 -9 10 -7 -8z"/>
<path d="M3853 1953 c4 -3 -1 -12 -11 -20 -15 -13 -15 -13 6 -3 19 9 23 30 5
30 -4 0 -3 -3 0 -7z"/>
<path d="M1085 1890 c-16 -7 -17 -9 -3 -9 9 -1 20 4 23 9 7 11 7 11 -20 0z"/>
<path d="M1078 1847 c7 -8 8 -18 4 -22 -4 -5 -1 -5 6 -1 17 10 15 23 -4 30
-13 5 -14 4 -6 -7z"/>
<path d="M3875 1830 c-4 -6 -11 -7 -17 -4 -7 4 -8 2 -4 -5 6 -9 11 -9 22 0 14
11 18 19 10 19 -3 0 -8 -5 -11 -10z"/>
<path d="M1078 1803 c7 -3 16 -2 19 1 4 3 -2 6 -13 5 -11 0 -14 -3 -6 -6z"/>
<path d="M1054 1777 c-4 -6 -3 -9 1 -4 5 4 17 0 27 -10 10 -9 18 -12 18 -7 0
5 -9 15 -20 21 -15 10 -21 10 -26 0z"/>
<path d="M3855 1771 c-3 -5 -2 -12 3 -15 5 -3 9 1 9 9 0 17 -3 19 -12 6z"/>
<path d="M1077 1739 c7 -7 15 -10 18 -7 3 3 -2 9 -12 12 -14 6 -15 5 -6 -5z"/>
<path d="M1056 1722 c-3 -5 1 -9 9 -9 8 0 12 4 9 9 -3 4 -7 8 -9 8 -2 0 -6 -4
-9 -8z"/>
<path d="M1081 1684 c0 -11 3 -14 6 -6 3 7 2 16 -1 19 -3 4 -6 -2 -5 -13z"/>
<path d="M1073 1625 c0 -8 3 -13 5 -10 3 3 12 -1 21 -7 10 -8 9 -4 -3 10 -23
26 -23 26 -23 7z"/>
<path d="M3834 1609 c1 -7 10 -13 19 -15 9 -1 15 2 11 7 -3 5 -9 7 -14 4 -4
-3 -11 0 -13 5 -3 6 -4 5 -3 -1z"/>
<path d="M1100 1539 c-13 -9 -12 -10 2 -5 10 3 22 -2 27 -12 12 -19 14 -12 5
12 -7 19 -14 20 -34 5z"/>
<path d="M3796 1527 c3 -10 9 -15 12 -12 3 3 0 11 -7 18 -10 9 -11 8 -5 -6z"/>
<path d="M3813 1485 c0 -8 4 -12 9 -9 5 3 6 10 3 15 -9 13 -12 11 -12 -6z"/>
<path d="M3781 1444 c0 -11 3 -14 6 -6 3 7 2 16 -1 19 -3 4 -6 -2 -5 -13z"/>
<path d="M3796 1407 c3 -10 9 -15 12 -12 3 3 0 11 -7 18 -10 9 -11 8 -5 -6z"/>
<path d="M1144 1403 c4 -4 16 -8 28 -10 28 -4 18 6 -12 12 -12 2 -20 1 -16 -2z"/>
<path d="M3773 1375 c-3 -9 -3 -18 -1 -21 3 -3 8 4 11 16 6 23 -1 27 -10 5z"/>
<path d="M1146 1338 c3 -5 10 -6 15 -3 13 9 11 12 -6 12 -8 0 -12 -4 -9 -9z"/>
<path d="M1246 1283 c-6 -14 -5 -15 5 -6 7 7 10 15 7 18 -3 3 -9 -2 -12 -12z"/>
<path d="M3755 1289 c-4 -6 -5 -12 -2 -15 2 -3 7 2 10 11 7 17 1 20 -8 4z"/>
<path d="M1273 1265 c0 -8 4 -15 9 -15 4 0 8 4 8 9 0 6 -4 12 -8 15 -5 3 -9
-1 -9 -9z"/>
<path d="M1330 1240 c0 -5 5 -10 11 -10 5 0 7 5 4 10 -3 6 -8 10 -11 10 -2 0
-4 -4 -4 -10z"/>
<path d="M3728 1216 c-10 -7 -15 -16 -11 -19 11 -11 23 -8 21 6 -2 6 3 11 10
9 8 -1 11 2 7 8 -8 12 -6 12 -27 -4z"/>
<path d="M1395 1200 c-3 -5 -1 -10 4 -10 6 0 11 5 11 10 0 6 -2 10 -4 10 -3 0
-8 -4 -11 -10z"/>
<path d="M1415 1180 c-3 -5 -1 -10 4 -10 6 0 11 5 11 10 0 6 -2 10 -4 10 -3 0
-8 -4 -11 -10z"/>
<path d="M1450 1139 c0 -5 5 -7 10 -4 6 3 10 8 10 11 0 2 -4 4 -10 4 -5 0 -10
-5 -10 -11z"/>
<path d="M3696 1126 c3 -8 13 -17 22 -21 13 -5 13 -2 -3 15 -21 24 -26 25 -19
6z"/>
<path d="M1513 1115 c0 -8 4 -12 9 -9 4 3 8 9 8 15 0 5 -4 9 -8 9 -5 0 -9 -7
-9 -15z"/>
<path d="M1470 1096 c7 -7 13 -7 20 0 6 6 3 10 -10 10 -13 0 -16 -4 -10 -10z"/>
<path d="M1557 1086 c-4 -10 -3 -15 3 -11 6 3 10 1 10 -6 0 -7 3 -10 6 -6 3 3
2 13 -4 22 -8 16 -9 16 -15 1z"/>
<path d="M3684 1089 c-3 -6 0 -18 9 -26 11 -12 16 -12 22 -2 5 7 4 10 -3 5 -6
-3 -14 -1 -18 5 -3 6 0 15 7 20 9 6 10 9 2 9 -6 0 -15 -5 -19 -11z"/>
<path d="M1590 1059 c0 -5 5 -7 10 -4 6 3 10 8 10 11 0 2 -4 4 -10 4 -5 0 -10
-5 -10 -11z"/>
<path d="M1556 1038 c3 -5 10 -6 15 -3 13 9 11 12 -6 12 -8 0 -12 -4 -9 -9z"/>
<path d="M1625 1039 c-4 -6 -4 -13 -1 -16 3 -4 6 -1 6 6 0 7 5 9 12 5 7 -4 8
-3 4 4 -9 15 -13 15 -21 1z"/>
<path d="M3675 1040 c-3 -5 -1 -10 4 -10 6 0 11 5 11 10 0 6 -2 10 -4 10 -3 0
-8 -4 -11 -10z"/>
<path d="M1647 1007 c-3 -8 1 -14 8 -14 7 0 11 6 8 14 -3 7 -6 13 -8 13 -2 0
-5 -6 -8 -13z"/>
<path d="M3690 1011 c0 -7 -4 -10 -8 -7 -4 2 -9 -4 -9 -15 -1 -10 3 -19 9 -19
6 0 8 3 5 7 -4 3 -2 12 5 20 6 7 8 16 4 20 -3 3 -6 1 -6 -6z"/>
<path d="M1690 1000 c0 -5 5 -10 11 -10 5 0 7 5 4 10 -3 6 -8 10 -11 10 -2 0
-4 -4 -4 -10z"/>
<path d="M1673 965 c0 -8 4 -12 9 -9 5 3 6 10 3 15 -9 13 -12 11 -12 -6z"/>
<path d="M1795 920 c-3 -5 -1 -10 4 -10 6 0 11 5 11 10 0 6 -2 10 -4 10 -3 0
-8 -4 -11 -10z"/>
<path d="M1821 907 c-5 -7 -6 -19 -2 -26 6 -9 11 -10 15 -2 4 6 2 11 -4 11 -6
0 -8 5 -5 10 5 8 11 7 21 -1 8 -6 16 -10 19 -8 2 3 -4 10 -15 16 -14 9 -21 9
-29 0z"/>
<path d="M3650 878 c0 -4 4 -8 9 -8 6 0 12 4 15 8 3 5 -1 9 -9 9 -8 0 -15 -4
-15 -9z"/>
<path d="M3676 853 c-6 -14 -5 -15 5 -6 7 7 10 15 7 18 -3 3 -9 -2 -12 -12z"/>
<path d="M3633 841 c0 -11 5 -18 9 -15 4 3 5 11 1 19 -7 21 -12 19 -10 -4z"/>
<path d="M1960 836 c0 -2 7 -9 15 -16 9 -7 15 -8 15 -2 0 5 -7 12 -15 16 -8 3
-15 4 -15 2z"/>
<path d="M3625 800 c-3 -6 1 -7 9 -4 18 7 21 14 7 14 -6 0 -13 -4 -16 -10z"/>
<path d="M3590 786 c0 -2 7 -7 16 -10 8 -3 12 -2 9 4 -6 10 -25 14 -25 6z"/>
<path d="M2263 675 c0 -8 4 -12 9 -9 5 3 6 10 3 15 -9 13 -12 11 -12 -6z"/>
<path d="M3531 674 c0 -11 3 -14 6 -6 3 7 2 16 -1 19 -3 4 -6 -2 -5 -13z"/>
<path d="M3553 665 c0 -8 4 -12 9 -9 5 3 6 10 3 15 -9 13 -12 11 -12 -6z"/>
<path d="M2347 649 c7 -7 15 -10 18 -7 3 3 -2 9 -12 12 -14 6 -15 5 -6 -5z"/>
<path d="M2295 640 c3 -5 8 -10 11 -10 2 0 4 5 4 10 0 6 -5 10 -11 10 -5 0 -7
-4 -4 -10z"/>
<path d="M2340 626 c0 -2 11 -6 25 -8 13 -3 22 -1 19 3 -5 9 -44 13 -44 5z"/>
<path d="M2516 587 c3 -10 9 -15 12 -12 3 3 0 11 -7 18 -10 9 -11 8 -5 -6z"/>
<path d="M2493 569 c-2 -23 3 -25 10 -4 4 8 3 16 -1 19 -4 3 -9 -4 -9 -15z"/>
<path d="M2595 560 c-2 -3 5 -7 16 -7 10 -1 19 2 19 6 0 9 -29 10 -35 1z"/>
<path d="M3387 559 c7 -7 15 -10 18 -7 3 3 -2 9 -12 12 -14 6 -15 5 -6 -5z"/>
<path d="M2655 549 c5 -8 17 -20 27 -27 10 -7 15 -18 12 -24 -4 -7 -2 -8 4 -4
15 9 6 27 -25 50 -16 12 -23 14 -18 5z"/>
<path d="M2755 520 c-3 -5 -1 -10 4 -10 6 0 11 5 11 10 0 6 -2 10 -4 10 -3 0
-8 -4 -11 -10z"/>
<path d="M3250 520 c0 -5 5 -10 11 -10 5 0 7 5 4 10 -3 6 -8 10 -11 10 -2 0
-4 -4 -4 -10z"/>
<path d="M2900 510 c-9 -6 -10 -10 -3 -10 6 0 15 5 18 10 8 12 4 12 -15 0z"/>
<path d="M2940 510 c-9 -6 -10 -10 -3 -10 6 0 15 5 18 10 8 12 4 12 -15 0z"/>
<path d="M2980 510 c-9 -6 -10 -10 -3 -10 6 0 15 5 18 10 8 12 4 12 -15 0z"/>
<path d="M3020 510 c-9 -6 -10 -10 -3 -10 6 0 15 5 18 10 8 12 4 12 -15 0z"/>
<path d="M3109 503 c-13 -16 -12 -17 4 -4 16 12 22 9 18 -12 -1 -5 3 -6 9 -2
8 5 7 11 -1 21 -14 18 -14 18 -30 -3z"/>
<path d="M2810 500 c0 -5 5 -10 11 -10 5 0 7 5 4 10 -3 6 -8 10 -11 10 -2 0
-4 -4 -4 -10z"/>
<path d="M3275 500 c-3 -5 -1 -10 4 -10 6 0 11 5 11 10 0 6 -2 10 -4 10 -3 0
-8 -4 -11 -10z"/>
<path d="M3279 453 c-13 -16 -12 -17 4 -4 16 13 21 21 13 21 -2 0 -10 -8 -17
-17z"/>
</g>
</svg>
